<svg width="15" height="16" viewBox="0 0 15 16" fill="none" xmlns="http://www.w3.org/2000/svg">
<path d="M5.71429 13.8465H2.85714V15.2812H1.42857V13.8465H0.714285C0.3198 13.8465 0 13.5253 0 13.1291V2.36863C0 1.97244 0.3198 1.65126 0.714285 1.65126H5.71429V0.639934C5.71429 0.44184 5.87415 0.28125 6.07144 0.28125C6.09108 0.28125 6.11072 0.282886 6.13015 0.286135L13.6889 1.55136C14.0333 1.60901 14.2857 1.90828 14.2857 2.25896V3.80336H15V5.2381H14.2857V10.2597H15V11.6944H14.2857V13.2388C14.2857 13.5895 14.0333 13.8888 13.6889 13.9464L12.8571 14.0856V15.2812H11.4286V14.3248L6.13015 15.2117C5.93558 15.2442 5.75158 15.1122 5.71915 14.9168C5.71594 14.8973 5.71429 14.8776 5.71429 14.8579V13.8465ZM7.14287 13.5876L12.8571 12.6311V2.86667L7.14287 1.91017V13.5876ZM10.3571 9.5423C9.76543 9.5423 9.28572 8.73935 9.28572 7.74888C9.28572 6.75841 9.76543 5.95547 10.3571 5.95547C10.9489 5.95547 11.4286 6.75841 11.4286 7.74888C11.4286 8.73935 10.9489 9.5423 10.3571 9.5423Z" fill="#0145FE"/>
</svg>
