<svg width="15" height="16" viewBox="0 0 15 16" fill="none" xmlns="http://www.w3.org/2000/svg">
<path d="M0 13.7812H15V15.2812H0V13.7812ZM1.5 7.78125H3V13.0312H1.5V7.78125ZM5.25 7.78125H6.75V13.0312H5.25V7.78125ZM8.25 7.78125H9.75V13.0312H8.25V7.78125ZM12 7.78125H13.5V13.0312H12V7.78125ZM0 4.03125L7.5 0.28125L15 4.03125V7.03125H0V4.03125ZM7.5 4.78125C7.91422 4.78125 8.25 4.44546 8.25 4.03125C8.25 3.61704 7.91422 3.28125 7.5 3.28125C7.08578 3.28125 6.75 3.61704 6.75 4.03125C6.75 4.44546 7.08578 4.78125 7.5 4.78125Z" fill="#0145FE"/>
</svg>
