<svg width="19" height="19" viewBox="0 0 19 19" fill="none" xmlns="http://www.w3.org/2000/svg">
<path d="M0.328949 16.6448H18.4868V18.4606H0.328949V16.6448ZM2.14474 9.38168H3.96053V15.7369H2.14474V9.38168ZM6.68421 9.38168H8.5V15.7369H6.68421V9.38168ZM10.3158 9.38168H12.1316V15.7369H10.3158V9.38168ZM14.8553 9.38168H16.6711V15.7369H14.8553V9.38168ZM0.328949 4.84221L9.4079 0.302734L18.4868 4.84221V8.47379H0.328949V4.84221ZM9.4079 5.7501C9.90933 5.7501 10.3158 5.34362 10.3158 4.84221C10.3158 4.3408 9.90933 3.93431 9.4079 3.93431C8.90647 3.93431 8.5 4.3408 8.5 4.84221C8.5 5.34362 8.90647 5.7501 9.4079 5.7501Z" fill="#7A7A7A"/>
</svg>
