<svg width="15" height="15" viewBox="0 0 15 15" fill="none" xmlns="http://www.w3.org/2000/svg">
<path d="M11.783 8.14159V8.88174C11.783 10.9316 11.249 12.9118 10.2428 14.6885L10.0604 15L8.65544 14.2792C9.58838 12.739 10.1107 11.0146 10.169 9.21917L10.1744 8.88174V8.14159H11.783ZM6.9574 5.92116H8.56592V8.88174L8.5615 9.16203C8.49756 11.2128 7.73287 13.1547 6.39723 14.7496L6.21161 14.9649L4.96586 14.0284C6.18571 12.6542 6.8884 10.9554 6.95258 9.15285L6.9574 8.88174V5.92116ZM7.76166 2.96058C9.98254 2.96058 11.783 4.61745 11.783 6.6613H10.1744C10.1744 5.435 9.09416 4.44087 7.76166 4.44087C6.42908 4.44087 5.34884 5.435 5.34884 6.6613V8.88174C5.34884 10.5363 4.68963 12.0972 3.52239 13.3054L3.3522 13.4756L2.18754 12.4546C3.12348 11.5504 3.67658 10.3708 3.73514 9.10578L3.74032 8.88174V6.6613C3.74032 4.61745 5.54072 2.96058 7.76166 2.96058ZM7.76166 0C11.7592 0 15 2.98237 15 6.6613V8.88174C15 10.1384 14.8377 11.376 14.52 12.5753L14.4084 12.9736L12.8563 12.5848C13.1709 11.5212 13.349 10.4218 13.3847 9.30244L13.3915 8.88174V6.6613C13.3915 3.79991 10.8708 1.48029 7.76166 1.48029C6.49704 1.48029 5.32985 1.86399 4.39 2.51179L3.24396 1.45638C4.48219 0.544976 6.05275 0 7.76166 0ZM2.10582 2.50378L3.25265 3.55847C2.5848 4.37908 2.17527 5.38804 2.13507 6.48315L2.13129 6.66056L2.13464 8.14159C2.13464 8.97019 1.92242 9.77184 1.52248 10.4932L1.39689 10.7072L0 9.97323C0.30504 9.48148 0.483489 8.93214 0.519375 8.35801L0.526122 8.14159L0.525986 6.6613C0.523283 5.08866 1.11547 3.6433 2.10582 2.50378Z" fill="#0145FE"/>
</svg>
