<svg width="15" height="16" viewBox="0 0 15 16" fill="none" xmlns="http://www.w3.org/2000/svg">
<path d="M14.25 0.28125C14.6642 0.28125 15 0.62565 15 1.05048V11.8197C15 12.2446 14.6642 12.5889 14.25 12.5889H3.34125L0 15.2812V1.05048C0 0.62565 0.33579 0.28125 0.75 0.28125H14.25ZM6.38647 3.67479C5.04619 4.27113 4.125 5.47774 4.125 6.82371C4.125 7.58894 4.33244 8.06102 4.71878 8.48163C4.96199 8.74648 5.34679 8.9351 5.74918 8.9351C6.47407 8.9351 7.0617 8.3324 7.0617 7.58894C7.0617 6.88087 6.52837 6.31117 5.85177 6.24687C5.7308 6.23533 5.6087 6.23748 5.49238 6.25394L5.49258 6.18348C5.49655 5.84448 5.56673 4.84533 6.7212 4.20463L6.38647 3.67479ZM10.1365 3.67479C8.79622 4.27113 7.875 5.47774 7.875 6.82371C7.875 7.58894 8.08245 8.06102 8.46877 8.48163C8.712 8.74648 9.09682 8.9351 9.4992 8.9351C10.2241 8.9351 10.8117 8.3324 10.8117 7.58894C10.8117 6.88087 10.2784 6.31117 9.6018 6.24687C9.48082 6.23533 9.35873 6.23748 9.2424 6.25394L9.24255 6.18348C9.24652 5.84448 9.31672 4.84533 10.4712 4.20463L10.1365 3.67479Z" fill="#0145FE"/>
</svg>
