<svg width="29" height="27" viewBox="0 0 29 27" fill="none" xmlns="http://www.w3.org/2000/svg">
<rect width="29" height="27" rx="5" fill="#1FC188" fill-opacity="0.1"/>
<path d="M22.4722 6.50833H12.2589C11.9781 5.63266 11.1893 5 10.2619 5C9.33441 5 8.54559 5.63266 8.2648 6.50833H6.67057C6.30024 6.50833 6 6.82358 6 7.21243C6 7.60128 6.30024 7.91653 6.67057 7.91653H8.26484C8.54563 8.7922 9.33445 9.42486 10.2619 9.42486C11.1893 9.42486 11.9782 8.7922 12.259 7.91653H22.4723C22.8426 7.91653 23.1429 7.60128 23.1429 7.21243C23.1429 6.82358 22.8426 6.50833 22.4722 6.50833ZM10.2619 8.01666C9.83953 8.01666 9.49592 7.65587 9.49592 7.21243C9.49592 6.76899 9.83953 6.4082 10.2619 6.4082C10.6842 6.4082 11.0278 6.76899 11.0278 7.21243C11.0278 7.65587 10.6842 8.01666 10.2619 8.01666Z" fill="#1FC188"/>
<path d="M22.4722 12.7896H20.878C20.5972 11.9139 19.8083 11.2812 18.8809 11.2812C17.9535 11.2812 17.1647 11.9139 16.8839 12.7896H6.67057C6.30024 12.7896 6 13.1048 6 13.4937C6 13.8825 6.30024 14.1978 6.67057 14.1978H16.8839C17.1647 15.0734 17.9536 15.7061 18.881 15.7061C19.8084 15.7061 20.5972 15.0734 20.878 14.1978H22.4723C22.8426 14.1978 23.1429 13.8825 23.1429 13.4937C23.1429 13.1048 22.8426 12.7896 22.4722 12.7896ZM18.881 14.2979C18.4586 14.2979 18.115 13.9371 18.115 13.4937C18.115 13.0502 18.4586 12.6895 18.881 12.6895C19.3033 12.6895 19.6469 13.0502 19.6469 13.4937C19.6469 13.9371 19.3033 14.2979 18.881 14.2979Z" fill="#1FC188"/>
<path d="M22.4722 18.8208H15.132C14.8512 17.9452 14.0624 17.3125 13.1349 17.3125C12.2075 17.3125 11.4186 17.9452 11.1378 18.8208H6.67057C6.30024 18.8208 6 19.1361 6 19.5249C6 19.9138 6.30024 20.229 6.67057 20.229H11.1378C11.4186 21.1047 12.2075 21.7374 13.1349 21.7374C14.0624 21.7374 14.8512 21.1047 15.132 20.229H22.4723C22.8426 20.229 23.1429 19.9138 23.1429 19.5249C23.1429 19.1361 22.8426 18.8208 22.4722 18.8208ZM13.1349 20.3292C12.7126 20.3292 12.369 19.9684 12.369 19.525C12.369 19.0815 12.7126 18.7208 13.1349 18.7208C13.5572 18.7208 13.9008 19.0815 13.9008 19.5249C13.9008 19.9684 13.5572 20.3292 13.1349 20.3292Z" fill="#1FC188"/>
</svg>
