<svg width="15" height="14" viewBox="0 0 15 14" fill="none" xmlns="http://www.w3.org/2000/svg">
<path d="M11.1767 11.3419C10.1134 12.0161 8.85238 12.4065 7.50019 12.4065C4.13008 12.4065 1.32634 9.98163 0.738525 6.7815C1.01145 5.29564 1.76208 3.97694 2.82529 2.99048L0.871038 1.03623L1.75493 0.152344L14.1293 12.5267L13.2454 13.4106L11.1767 11.3419ZM3.70975 3.87494C2.87921 4.63147 2.27363 5.63588 2.01424 6.7815C2.58764 9.31394 4.85288 11.1565 7.50019 11.1565C8.49981 11.1565 9.445 10.8937 10.2652 10.4304L8.9975 9.16269C8.56394 9.43587 8.0505 9.594 7.50019 9.594C5.94686 9.594 4.68766 8.33475 4.68766 6.7815C4.68766 6.23113 4.84573 5.71769 5.11894 5.28414L3.70975 3.87494ZM8.07119 8.23637L6.04529 6.2105C5.97581 6.38738 5.93766 6.57994 5.93766 6.7815C5.93766 7.64444 6.63725 8.344 7.50019 8.344C7.70169 8.344 7.89431 8.30581 8.07119 8.23637ZM13.0043 9.65169L12.11 8.75744C12.5199 8.17313 12.8221 7.5055 12.9861 6.7815C12.4127 4.24899 10.1474 2.40648 7.50019 2.40648C6.9715 2.40648 6.45806 2.47996 5.97031 2.61774L4.98404 1.63147C5.76329 1.32487 6.61206 1.15647 7.50019 1.15647C10.8703 1.15647 13.674 3.58133 14.2618 6.7815C14.0667 7.84375 13.6274 8.82063 13.0043 9.65169ZM7.32681 3.97423C7.38413 3.97074 7.44194 3.96898 7.50019 3.96898C9.05344 3.96898 10.3127 5.22818 10.3127 6.7815C10.3127 6.83969 10.3109 6.8975 10.3074 6.95481L7.32681 3.97423Z" fill="#0145FE"/>
</svg>
