<svg width="14" height="15" viewBox="0 0 14 15" fill="none" xmlns="http://www.w3.org/2000/svg">
<path d="M12.4444 5.70699H13.2222C13.6518 5.70699 14 6.02038 14 6.40699V13.407C14 13.7936 13.6518 14.107 13.2222 14.107H0.777778C0.348227 14.107 0 13.7936 0 13.407V6.40699C0 6.02038 0.348227 5.70699 0.777778 5.70699H1.55556V5.00699C1.55556 2.3008 3.99312 0.106995 7 0.106995C10.0069 0.106995 12.4444 2.3008 12.4444 5.00699V5.70699ZM10.8889 5.70699V5.00699C10.8889 3.074 9.14776 1.50699 7 1.50699C4.85223 1.50699 3.11111 3.074 3.11111 5.00699V5.70699H10.8889ZM6.22222 8.50699V11.307H7.77778V8.50699H6.22222Z" fill="black"/>
</svg>
