<svg width="15" height="15" viewBox="0 0 15 15" fill="none" xmlns="http://www.w3.org/2000/svg">
<path d="M2.5 5V4.28571C2.5 1.91878 4.73857 0 7.5 0C10.2614 0 12.5 1.91878 12.5 4.28571V5H14.1667C14.6269 5 15 5.3198 15 5.71429V14.2857C15 14.6802 14.6269 15 14.1667 15H0.833333C0.3731 15 0 14.6802 0 14.2857V5.71429C0 5.3198 0.3731 5 0.833333 5H2.5ZM13.3333 6.42857H1.66667V13.5714H13.3333V6.42857ZM6.66667 10.5231C6.1685 10.2761 5.83333 9.8145 5.83333 9.28571C5.83333 8.49671 6.5795 7.85714 7.5 7.85714C8.4205 7.85714 9.16667 8.49671 9.16667 9.28571C9.16667 9.8145 8.8315 10.2761 8.33333 10.5231V12.1429H6.66667V10.5231ZM4.16667 5H10.8333V4.28571C10.8333 2.70776 9.34092 1.42857 7.5 1.42857C5.65905 1.42857 4.16667 2.70776 4.16667 4.28571V5Z" fill="#0145FE"/>
</svg>
