<svg width="15" height="16" viewBox="0 0 15 16" fill="none" xmlns="http://www.w3.org/2000/svg">
<path d="M12.75 15.2812H2.25C1.00736 15.2812 0 14.2739 0 13.0312V1.03125C0 0.61704 0.33579 0.28125 0.75 0.28125H11.25C11.6642 0.28125 12 0.61704 12 1.03125V10.0312H15V13.0312C15 14.2739 13.9927 15.2812 12.75 15.2812ZM12 11.5312V13.0312C12 13.4455 12.3358 13.7812 12.75 13.7812C13.1642 13.7812 13.5 13.4455 13.5 13.0312V11.5312H12ZM3 4.03125V5.53125H9V4.03125H3ZM3 7.03125V8.53125H9V7.03125H3ZM3 10.0312V11.5312H6.75V10.0312H3Z" fill="#0145FE"/>
</svg>
