<svg width="19" height="19" viewBox="0 0 19 19" fill="none" xmlns="http://www.w3.org/2000/svg">
<path d="M0.551392 16.9743H18.9159V18.8108H0.551392V16.9743ZM2.38784 9.62853H4.22429V16.0561H2.38784V9.62853ZM6.97896 9.62853H8.81541V16.0561H6.97896V9.62853ZM10.6519 9.62853H12.4883V16.0561H10.6519V9.62853ZM15.243 9.62853H17.0794V16.0561H15.243V9.62853ZM0.551392 5.03741L9.73363 0.446289L18.9159 5.03741V8.71031H0.551392V5.03741ZM9.73363 5.95564C10.2408 5.95564 10.6519 5.54453 10.6519 5.03741C10.6519 4.53029 10.2408 4.11919 9.73363 4.11919C9.2265 4.11919 8.81541 4.53029 8.81541 5.03741C8.81541 5.54453 9.2265 5.95564 9.73363 5.95564Z" fill="#6D7579"/>
</svg>
