<svg width="15" height="15" viewBox="0 0 15 15" fill="none" xmlns="http://www.w3.org/2000/svg">
<path d="M15 1.7763C14.4382 2.08208 13.8425 2.28291 13.2325 2.37216C13.8752 1.89878 14.3561 1.15409 14.5856 0.276817C13.9817 0.718294 13.3208 1.02902 12.6315 1.19548C12.0497 0.431664 11.2365 -0.00118375 10.3857 2.43157e-06C8.68642 2.43157e-06 7.30823 1.69531 7.30823 3.78717C7.30823 4.08394 7.3359 4.37174 7.38763 4.64942C4.82896 4.49092 2.56222 2.98421 1.04393 0.692759C0.770568 1.27069 0.626899 1.92763 0.627628 2.59632C0.627628 3.9101 1.1711 5.0697 1.99665 5.7486C1.50796 5.72958 1.03002 5.56717 0.602712 5.27479C0.602241 5.2907 0.602241 5.3066 0.602241 5.32164C0.602241 7.15698 1.66309 8.68797 3.07137 9.03559C2.80706 9.1236 2.53444 9.16806 2.26063 9.16779C2.06176 9.16779 1.86878 9.14524 1.68119 9.10096C2.07305 10.6051 3.20888 11.7002 4.55605 11.7303C3.4659 12.7831 2.11969 13.3543 0.733878 13.3518C0.488609 13.3521 0.243547 13.3343 0 13.2986C1.4069 14.4115 3.04454 15.0022 4.71707 15C10.3782 15 13.4735 9.22972 13.4735 4.22568C13.4735 4.06196 13.4702 3.89767 13.4643 3.73568C14.0668 3.20007 14.5868 2.53656 15 1.7763Z" fill="#0145FE"/>
</svg>
