<svg width="15" height="16" viewBox="0 0 15 16" fill="none" xmlns="http://www.w3.org/2000/svg">
<path d="M0.761121 11.5306C0.42477 10.9692 0.172311 10.3833 0 9.78633C0.756717 9.41424 1.27489 8.65604 1.27489 7.78124C1.27489 6.90711 0.757495 6.14936 0.00171182 5.77698C0.349322 4.56901 1.00943 3.44402 1.948 2.52448C2.66074 2.97002 3.60124 3.02339 4.38745 2.58596C5.17366 2.14853 5.59594 1.33693 5.55192 0.519338C6.8476 0.195812 8.18864 0.20739 9.44798 0.521272C9.40472 1.33822 9.82693 2.14887 10.6125 2.58596C11.3988 3.02338 12.3392 2.97002 13.0519 2.52452C13.5022 2.96679 13.9025 3.47045 14.2389 4.03188C14.5752 4.5933 14.8277 5.17921 15 5.77614C14.2433 6.14822 13.7251 6.90644 13.7251 7.78124C13.7251 8.65545 14.2425 9.41312 14.9983 9.78551C14.6507 10.9935 13.9906 12.1184 13.052 13.038C12.3392 12.5925 11.3988 12.5391 10.6125 12.9765C9.82631 13.4139 9.40409 14.2256 9.44806 15.0432C8.15246 15.3667 6.81141 15.3551 5.55202 15.0412C5.59527 14.2242 5.17304 13.4136 4.38745 12.9765C3.60126 12.5391 2.66081 12.5924 1.94808 13.0379C1.49779 12.5957 1.09748 12.092 0.761121 11.5306ZM5.16559 11.6777C6.01483 12.1502 6.62474 12.8973 6.91685 13.7545C7.3046 13.7901 7.69491 13.7906 8.08274 13.7557C8.37469 12.898 8.98475 12.1505 9.8344 11.6777C10.6841 11.2049 11.6609 11.0697 12.5777 11.2548C12.8029 10.9486 12.9976 10.6225 13.1595 10.2812C12.5352 9.60876 12.1688 8.72623 12.1688 7.78124C12.1688 6.83625 12.5352 5.9538 13.1595 5.28139C13.0785 5.11191 12.9891 4.94523 12.8911 4.78175C12.7931 4.61826 12.6881 4.46026 12.5763 4.30799C11.6599 4.49271 10.6837 4.35727 9.8344 3.88478C8.98514 3.41229 8.37532 2.66521 8.08313 1.808C7.69546 1.77245 7.30507 1.77194 6.91732 1.80678C6.62528 2.66448 6.01522 3.41205 5.16559 3.88478C4.31592 4.35752 3.33909 4.49285 2.42231 4.3077C2.19709 4.61393 2.00238 4.93995 1.84048 5.28129C2.46474 5.95373 2.83117 6.83625 2.83117 7.78124C2.83117 8.72623 2.46475 9.60869 1.84048 10.2811C1.92149 10.4506 2.01095 10.6173 2.1089 10.7807C2.20685 10.9442 2.3119 11.1022 2.42374 11.2545C3.34011 11.0698 4.31637 11.2052 5.16559 11.6777ZM7.49999 10.0309C6.21077 10.0309 5.16559 9.02371 5.16559 7.78124C5.16559 6.53885 6.21077 5.53163 7.49999 5.53163C8.78929 5.53163 9.8344 6.53885 9.8344 7.78124C9.8344 9.02371 8.78929 10.0309 7.49999 10.0309ZM7.49999 8.53112C7.92975 8.53112 8.27813 8.1954 8.27813 7.78124C8.27813 7.36709 7.92975 7.03137 7.49999 7.03137C7.07022 7.03137 6.72185 7.36709 6.72185 7.78124C6.72185 8.1954 7.07022 8.53112 7.49999 8.53112Z" fill="#0145FE"/>
</svg>
