<svg width="132" height="119" viewBox="0 0 132 119" fill="none" xmlns="http://www.w3.org/2000/svg">
<mask id="mask0_571_2245" style="mask-type:luminance" maskUnits="userSpaceOnUse" x="0" y="0" width="132" height="119">
<path d="M132 0H0V118.402H132V0Z" fill="white"/>
</mask>
<g mask="url(#mask0_571_2245)">
<mask id="mask1_571_2245" style="mask-type:luminance" maskUnits="userSpaceOnUse" x="-36" y="-18" width="574" height="637">
<path d="M-35.8191 -17.5781H537.784V618.708H-35.8191V-17.5781Z" fill="white"/>
</mask>
<g mask="url(#mask1_571_2245)">
<g opacity="0.5">
<path d="M18.4799 58.8927L80.5264 23.2432L18.4799 58.8927Z" fill="white"/>
<path d="M18.4799 58.8927L80.5264 23.2432" stroke="#0145FE" stroke-opacity="0.3" stroke-width="15.2586" stroke-linecap="round"/>
</g>
<g opacity="0.5">
<path d="M33.2386 82.2755L95.2852 46.626L33.2386 82.2755Z" fill="white"/>
<path d="M33.2386 82.2755L95.2852 46.626" stroke="#0145FE" stroke-opacity="0.3" stroke-width="15.2586" stroke-linecap="round"/>
</g>
<g opacity="0.5">
<path d="M111.178 37.6675L116.014 34.8525L111.178 37.6675Z" fill="white"/>
<path d="M111.178 37.6675L116.014 34.8525" stroke="#0145FE" stroke-opacity="0.3" stroke-width="15.2586" stroke-linecap="round"/>
</g>
<g opacity="0.5">
<path d="M55.1281 101.512L102.25 73.9883L55.1281 101.512Z" fill="white"/>
<path d="M55.1281 101.512L102.25 73.9883" stroke="#0145FE" stroke-opacity="0.3" stroke-width="15.2586" stroke-linecap="round"/>
</g>
<path d="M113.776 76.6769C114.531 76.7562 115.079 77.4333 115 78.188C114.921 78.9426 114.243 79.4909 113.489 79.4116C112.734 79.3323 112.186 78.6552 112.265 77.9005C112.345 77.1459 113.022 76.5976 113.776 76.6769Z" stroke="#0145FE" stroke-width="0.710337"/>
<path d="M33.5637 104.667C34.8046 104.797 35.7062 105.911 35.5758 107.152C35.4454 108.393 34.3319 109.294 33.091 109.164C31.8501 109.034 30.9484 107.92 31.0789 106.679C31.2093 105.438 32.3227 104.537 33.5637 104.667Z" stroke="#0145FE" stroke-width="1.1681"/>
<path d="M65.2654 11.998C66.5064 12.1285 67.408 13.2419 67.2776 14.4828C67.1472 15.7238 66.0337 16.6254 64.7928 16.495C63.5519 16.3646 62.6502 15.2511 62.7806 14.0102C62.9111 12.7693 64.0245 11.8676 65.2654 11.998Z" stroke="#0145FE" stroke-width="1.1681"/>
<path d="M12.8861 41.4414C13.4562 41.4414 13.919 41.9042 13.919 42.4743C13.919 43.0443 13.4562 43.5071 12.8861 43.5071C12.3161 43.5071 11.8533 43.0443 11.8533 42.4743C11.8533 41.9042 12.3161 41.4414 12.8861 41.4414Z" stroke="#0145FE" stroke-width="0.853834"/>
<path d="M93.1081 108.796C93.6781 108.796 94.1409 109.259 94.1409 109.829C94.1409 110.399 93.6781 110.862 93.1081 110.862C92.538 110.862 92.0752 110.399 92.0752 109.829C92.0752 109.259 92.538 108.796 93.1081 108.796Z" stroke="#0145FE" stroke-width="0.853834"/>
<path d="M104.842 11.6611L106.123 7.7183" stroke="#0145FE" stroke-width="0.497487"/>
<path d="M103.576 9.0791L107.519 10.3602" stroke="#0145FE" stroke-width="0.497487"/>
<path d="M17.0211 79.3408L18.1638 75.3557" stroke="#0145FE" stroke-width="0.497487"/>
<path d="M15.6659 76.8047L19.651 77.9474" stroke="#0145FE" stroke-width="0.497487"/>
<path d="M103.191 97.2783L104.123 93.2388" stroke="#0145FE" stroke-width="0.497487"/>
<path d="M101.705 94.8164L105.744 95.749" stroke="#0145FE" stroke-width="0.497487"/>
</g>
<path d="M66.0183 29.3975C82.4692 29.3975 95.8261 42.7544 95.8261 59.2053C95.8261 75.6563 82.4692 89.0131 66.0183 89.0131C49.5673 89.0131 36.2104 75.6563 36.2104 59.2053C36.2104 42.7544 49.5673 29.3975 66.0183 29.3975Z" fill="white"/>
<path d="M66.0001 32.2168C80.8952 32.2168 92.9888 44.3104 92.9888 59.2054C92.9888 74.1005 80.8952 86.1941 66.0001 86.1941C51.1051 86.1941 39.0115 74.1005 39.0115 59.2054C39.0115 44.3104 51.1051 32.2168 66.0001 32.2168Z" fill="#0145FE"/>
<path d="M53.8115 60.1958L61.108 67.3265L78.1884 50.2461" stroke="white" stroke-width="2.98492"/>
</g>
</svg>
