<svg width="15" height="15" viewBox="0 0 15 15" fill="none" xmlns="http://www.w3.org/2000/svg">
<path d="M3.71178 12.1532C3.22519 11.0813 3 9.90075 3 9C3 7.87785 3.44248 6.68025 4.2023 5.75759C4.6828 5.17414 5.30805 4.68107 6.05092 4.39408C5.69038 4.3411 5.29859 4.3125 4.875 4.3125C2.99288 4.3125 1.5 5.70907 1.5 7.5C1.5 9.3771 2.36201 11.0529 3.71178 12.1532ZM7.5 13.5C8.19623 13.5 8.86477 13.3816 9.4866 13.1635C6.96383 12.7454 5.25065 11.2034 4.52161 9.44115C4.59315 10.2103 4.84368 11.1631 5.29354 11.9591C5.83252 12.9127 6.56483 13.5 7.5 13.5ZM10.875 7.5C10.875 7.8555 10.8269 8.18377 10.7341 8.48625C10.8883 8.50268 11.0606 8.5125 11.25 8.5125C12.5824 8.5125 13.5 7.58707 13.5 6.375C13.5 4.02761 11.028 1.5 7.5 1.5C5.9854 1.5 4.60187 2.0612 3.54602 2.98702C3.97126 2.87289 4.41763 2.8125 4.875 2.8125C6.68025 2.8125 8.1723 3.26352 9.23033 4.09884C10.3034 4.94593 10.875 6.14827 10.875 7.5ZM7.5 5.625C6.46448 5.625 5.625 6.46448 5.625 7.5C5.625 9.375 7.35 11.775 10.875 11.775C11.2064 11.775 11.5045 11.7515 11.7718 11.7134C12.0034 11.6805 12.2118 11.6366 12.3983 11.5878C12.5426 11.55 12.6737 11.5092 12.7924 11.4682C12.8955 11.4325 12.9892 11.3967 13.0739 11.3625C13.1726 11.3227 13.2592 11.2849 13.3345 11.2522C13.4908 11.1841 13.598 11.1375 13.6621 11.1375C13.8 11.1375 13.875 11.2125 13.875 11.3625C13.875 11.4795 13.8218 11.5693 13.6621 11.7847C13.6309 11.8268 13.5956 11.8738 13.5557 11.9267L13.5005 12C13.3717 12.1716 13.2356 12.3374 13.0928 12.4972C12.8996 12.7133 12.694 12.9181 12.4773 13.1105C11.1531 14.2861 9.40995 15 7.5 15C3.35786 15 0 11.6421 0 7.5C0 3.35786 3.35786 0 7.5 0C11.6421 0 15 3 15 6.375C15 8.475 13.35 10.0125 11.25 10.0125C9.75 10.0125 8.7 9.525 8.7 9C8.7 8.89552 8.7819 8.8092 8.88862 8.6967C9.08835 8.48633 9.375 8.18423 9.375 7.5C9.375 6.46448 8.53553 5.625 7.5 5.625Z" fill="#0145FE"/>
</svg>
